<svg width="735" height="549" viewBox="0 0 735 549" fill="none" xmlns="http://www.w3.org/2000/svg">
<circle cx="274" cy="274" r="274" fill="#EFD7C9"/>
<path d="M659.824 477.306C639.583 502.329 584.756 523.686 537.26 524.642C536.623 524.642 536.145 525.28 536.145 525.917C536.145 526.555 536.623 527.033 537.42 527.033C585.393 525.917 641.177 504.241 661.737 478.74C662.215 478.262 662.056 477.465 661.578 476.987C661.099 476.668 660.303 476.668 659.824 477.306Z" fill="black"/>
<path d="M635.28 509.023C631.136 512.689 618.545 520.339 608.185 522.889C607.548 523.049 607.229 523.686 607.388 524.324C607.548 524.802 608.026 525.28 608.504 525.28C608.663 525.28 608.663 525.28 608.823 525.28C619.501 522.73 632.571 514.601 636.874 510.936C637.352 510.457 637.352 509.82 637.033 509.182C636.555 508.704 635.758 508.704 635.28 509.023Z" fill="black"/>
<path d="M383.458 248.753C382.82 248.912 382.342 249.391 382.502 250.187L422.666 511.573C422.825 512.21 423.303 512.529 423.781 512.529H423.941C424.578 512.37 425.056 511.891 424.897 511.094L384.733 249.709C384.733 249.072 384.095 248.594 383.458 248.753Z" fill="black"/>
<path d="M732.184 372.752L655.84 279.036C657.115 278.398 658.071 277.92 658.39 277.601C659.028 276.964 660.94 274.254 661.896 269.313C663.012 263.894 659.506 262.619 657.593 261.982C656.637 261.663 656.477 260.229 656.796 256.722C657.115 253.057 653.768 250.347 650.421 249.231C650.102 249.072 649.783 249.072 649.624 249.072C649.783 244.609 647.871 239.828 644.046 239.031C643.089 238.872 642.133 238.712 641.336 238.872C641.974 235.206 641.655 232.496 640.38 230.584C639.424 228.99 637.67 228.034 635.439 227.715C631.614 227.077 623.326 228.512 620.298 229.627C619.501 229.946 618.385 230.743 617.27 231.699L576.946 182.291C573.599 178.307 567.702 177.51 563.558 180.538L517.816 213.211C517.497 213.371 517.338 213.689 517.338 214.008C517.338 214.167 517.338 214.486 517.497 214.646C511.441 222.615 509.05 225.165 498.053 230.106C495.981 231.062 494.068 231.859 492.156 232.656C481.636 221.18 459.642 201.417 446.732 194.245C438.763 189.782 431.112 188.348 425.694 187.232C422.506 186.595 419.956 186.116 418.681 185.319C408.64 178.785 395.411 177.35 381.704 181.335C370.229 184.682 363.535 184.363 355.885 182.929C352.378 180.379 348.075 178.466 342.975 177.669C340.584 177.35 338.831 177.35 337.556 177.669C343.134 165.237 341.221 150.415 338.671 140.374C338.034 138.143 337.556 135.911 336.918 133.839C343.612 122.523 343.931 110.57 337.396 104.673C336.121 103.557 334.687 103.238 333.093 103.716C331.18 104.354 329.587 106.266 328.312 108.498C326.558 104.194 324.805 99.8912 323.052 95.5879L322.096 93.0378C319.705 87.1407 317.314 82.1999 315.083 78.056C316.677 76.7809 317.633 75.1871 317.952 73.4339C318.271 70.2463 316.199 66.7399 311.736 62.4366C302.651 53.6707 279.382 52.0768 263.603 56.0614C263.922 54.7863 264.081 53.0331 263.443 51.7581C263.125 50.8018 262.328 50.1643 261.531 49.8455C256.749 48.0923 253.243 49.0486 250.693 52.8737C249.896 53.9894 249.099 55.7426 249.737 57.4958C250.055 58.4521 250.852 59.0896 252.127 59.7271C241.927 63.7117 234.914 68.015 226.786 77.8966C219.773 86.5032 215.948 99.5724 218.498 106.745C219.454 109.295 221.048 111.048 223.279 111.526C224.395 111.845 225.351 111.845 226.467 111.845C226.786 111.845 227.105 111.845 227.423 111.845C228.539 119.495 231.089 126.189 234.117 133.999C234.277 134.318 234.277 134.477 234.436 134.796C230.292 132.724 226.467 131.927 224.554 134.477C222.323 137.505 222.164 143.721 226.626 149.299C229.973 153.603 236.349 157.587 242.246 158.384C245.912 170.497 249.418 180.379 259.937 191.057C262.328 193.448 264.878 195.52 267.428 197.114C268.544 198.867 269.5 200.779 270.297 202.373C268.225 205.402 261.69 209.705 258.821 211.458C250.693 210.342 232.842 220.065 215.31 229.468C213.079 230.743 210.688 231.859 208.616 233.134C208.298 233.293 207.979 233.771 207.979 234.09C200.488 237.118 194.431 242.537 184.231 255.607C182.637 257.519 181.043 259.751 179.131 262.141C167.974 276.645 151.08 298.48 133.07 310.753L132.751 310.912C129.085 313.462 127.651 314.578 130.041 319.359C130.36 319.997 130.998 320.953 131.795 322.069C129.882 324.459 128.129 326.531 126.535 328.444C120 336.413 117.769 339.122 116.494 341.672C116.335 341.991 116.016 342.629 115.697 343.426C112.828 349.163 105.975 362.87 105.178 369.245C104.222 376.418 104.222 389.646 104.7 392.834C105.178 396.021 109.322 402.397 113.147 402.556C114.103 402.556 115.06 402.556 116.175 402.397C118.725 402.078 121.754 401.919 123.826 403.194C126.057 404.469 131.954 405.744 139.923 405.744C147.573 405.744 157.296 404.469 167.337 400.643C178.175 396.5 185.347 392.993 191.084 390.124C196.344 387.415 200.488 385.343 205.429 383.908C215.788 380.721 227.901 377.693 240.493 380.561C241.289 380.721 242.086 380.88 242.883 381.199C248.302 390.921 248.462 404.947 248.462 406.541C248.462 407.338 249.418 408.931 251.649 411.322C250.055 413.394 250.055 416.103 251.809 418.972C251.968 419.291 252.924 420.407 254.359 422.16C256.112 441.604 256.909 451.008 254.199 467.105C252.446 477.943 246.868 487.984 241.608 497.707C237.942 504.56 234.277 510.935 232.045 517.47C231.886 517.789 232.045 518.267 232.205 518.586C232.683 519.223 243.043 533.408 267.269 542.333C277.788 546.159 290.06 548.23 303.926 548.23C313.33 548.23 323.69 547.274 334.527 545.521C335.643 545.362 336.759 545.202 338.193 544.883C356.363 541.696 404.336 533.089 453.266 544.246C453.745 544.405 454.223 544.087 454.542 543.768C454.86 543.29 454.701 542.812 454.382 542.333C454.382 542.333 450.557 537.393 453.266 515.079V514.92L491.04 507.11C493.112 506.632 494.865 505.357 495.981 503.763C496.937 504.719 497.893 505.038 499.009 505.038C500.603 505.038 502.515 504.082 504.428 502.966C506.181 502.01 507.137 502.488 508.412 503.126C509.369 503.604 510.644 504.241 512.237 503.763C513.831 503.285 514.628 502.169 515.106 501.372C515.744 500.416 515.903 500.257 517.019 500.576C517.656 500.735 518.135 500.894 518.613 501.054C520.366 501.691 522.119 502.329 523.713 501.372C524.829 500.735 525.626 499.46 525.944 497.707C526.582 494.997 527.219 492.128 528.016 491.65C528.176 491.65 528.494 491.65 528.494 491.81C529.451 492.128 530.088 494.678 530.407 496.113C530.726 497.707 531.204 499.3 532.638 498.822C533.595 498.663 533.754 497.707 534.71 494.519C535.188 492.925 535.985 489.738 536.623 488.622C537.26 489.419 538.376 491.491 538.854 492.766C540.129 495.475 540.767 496.432 541.723 496.75C542.042 496.91 542.52 496.75 542.839 496.591C543.636 496.113 543.636 494.997 543.795 491.331C543.795 489.1 543.954 483.84 544.911 482.884C545.867 483.203 547.62 486.231 548.736 487.984C550.648 491.172 551.923 492.925 553.198 492.925C553.836 492.925 554.314 492.606 554.633 492.128C555.589 490.853 555.589 488.303 555.749 484.478C555.749 483.203 555.749 481.609 555.908 480.653C556.705 481.609 558.139 483.203 558.936 484.319C562.283 488.622 563.718 490.216 565.152 490.216C565.63 490.216 566.108 489.897 566.427 489.419C567.065 488.463 567.224 486.55 567.543 483.203C567.702 480.972 568.18 477.146 568.658 476.031C569.774 476.509 572.165 479.218 573.599 480.812C576.787 484.159 577.903 485.434 579.178 485.434C579.656 485.434 579.974 485.275 580.293 484.797C580.771 484.159 580.931 483.044 580.931 480.653C581.09 477.784 581.25 473.321 583.322 472.365C585.075 471.568 588.581 475.393 590.334 477.465C592.247 479.856 593.522 481.131 594.797 480.015C595.594 479.378 595.594 477.943 595.434 474.596C595.275 471.887 594.956 466.946 596.231 466.149C597.188 465.512 601.332 468.859 603.244 470.293C606.272 472.843 608.026 474.118 609.46 473.321C610.576 472.524 610.735 470.771 610.894 467.265C611.054 465.033 611.213 461.049 612.169 460.411C614.401 458.818 615.517 459.615 617.748 461.527C618.864 462.483 619.979 463.44 621.414 463.918C622.848 464.396 623.964 464.237 624.92 463.599C626.673 462.324 626.833 459.296 626.833 456.268C626.833 453.558 627.47 450.211 628.745 449.574C629.542 449.255 630.658 450.052 631.295 450.689C635.758 454.674 637.83 456.427 639.424 455.789C640.699 455.152 640.699 453.399 640.699 452.921C640.699 452.283 640.699 451.645 640.699 450.849C640.539 446.705 640.539 443.358 642.771 443.039C644.524 442.72 647.552 443.995 650.262 445.111C653.927 446.545 656.159 447.342 657.593 446.705C658.071 446.545 658.39 446.067 658.709 445.589C659.506 443.198 659.028 440.17 658.39 436.504C658.231 435.867 658.231 435.229 658.071 434.432C657.912 433.635 657.753 432.042 658.709 431.245C659.824 430.448 662.056 430.607 665.084 431.882L666.04 432.201C670.344 433.954 672.097 434.751 673.531 433.795C674.647 432.838 674.488 431.085 674.328 429.332C674.169 428.854 674.169 428.376 674.009 427.898C679.11 426.463 690.904 425.348 690.904 425.348C691.223 425.348 691.382 425.188 691.541 425.029L731.387 385.98C735.052 382.474 735.371 376.736 732.184 372.752ZM649.624 251.622C650.421 251.941 654.724 253.535 654.406 256.722C654.087 259.272 653.768 263.257 656.796 264.373C658.709 265.01 660.303 265.488 659.506 268.995C658.549 273.457 656.796 275.689 656.477 276.167C656.318 276.326 655.362 276.804 654.087 277.282C653.449 277.601 652.652 277.92 651.696 278.239C648.668 279.354 644.843 280.47 641.496 280.948C635.599 281.905 633.527 280.948 632.889 280.311C632.73 279.833 633.208 277.442 634.961 276.486C635.599 276.167 637.033 275.689 638.627 275.21C641.177 274.414 644.365 273.457 646.755 272.182C647.074 272.023 647.393 271.864 647.711 271.704C648.03 271.545 648.508 271.226 648.827 270.907C650.58 269.473 652.652 267.241 652.812 267.241C653.29 266.763 653.29 265.966 652.812 265.488C652.334 265.01 651.537 265.01 651.059 265.488C650.421 266.126 648.668 267.879 647.233 268.995L645.002 266.126C646.755 265.329 648.349 264.851 649.624 264.373C650.421 264.054 651.218 263.894 651.855 263.576C652.493 263.257 652.812 262.619 652.493 261.982C652.174 261.344 651.537 261.185 650.899 261.344C650.262 261.663 649.624 261.822 648.827 262.141C647.393 262.619 645.48 263.257 643.408 264.373C642.771 264.691 641.974 265.01 641.336 265.488C640.699 265.807 640.061 266.285 639.424 266.923C633.367 271.385 624.442 276.964 618.704 278.239C617.588 278.398 615.517 278.717 614.879 277.442C614.241 276.486 614.72 274.573 615.835 273.457C617.907 271.067 623.645 266.923 629.064 262.779L630.817 261.504C632.57 260.229 634.164 258.954 635.439 257.997C635.598 257.838 635.917 257.679 636.077 257.519C636.555 257.2 636.874 256.882 637.352 256.563C639.424 254.969 641.018 253.694 642.293 253.057C644.683 251.463 647.552 250.985 649.624 251.622ZM639.105 241.581C639.583 241.422 639.902 241.422 640.38 241.422C641.496 241.262 642.452 241.422 643.408 241.581C645.799 242.059 647.233 245.725 647.074 249.072C644.843 249.231 642.611 249.869 641.017 250.825C639.583 251.622 637.989 252.897 635.599 254.65C635.28 254.969 634.802 255.288 634.483 255.607C634.323 255.766 634.005 255.925 633.686 256.244C632.411 257.2 630.976 258.316 629.223 259.751L627.629 261.026C623.486 264.213 619.501 267.241 616.632 269.632C612.329 272.182 606.75 272.82 604.36 271.545C603.403 271.067 603.404 270.588 603.404 270.27C603.085 267.401 606.113 265.01 608.823 262.779C610.098 261.822 611.213 260.866 612.01 259.91C614.241 257.36 617.748 254.013 621.573 250.666C623.326 249.072 624.92 247.956 626.514 247C627.151 246.681 627.789 246.203 628.426 245.884C629.861 245.247 631.295 244.45 633.048 243.812C635.598 242.537 637.352 241.9 639.105 241.581ZM611.213 254.81C613.126 253.535 615.357 251.622 616.951 250.028C617.748 249.391 618.385 248.753 618.864 248.434C620.298 247.319 622.529 245.725 624.442 244.609L624.761 245.087C623.167 246.044 621.573 247.159 619.82 248.753C616.792 251.303 613.923 254.013 611.691 256.404C611.851 255.766 611.532 255.288 611.213 254.81ZM626.514 243.334C626.673 243.334 626.673 243.175 626.833 243.175C627.151 243.175 627.948 243.015 628.905 242.856C628.267 243.175 627.629 243.494 626.992 243.812L626.514 243.334ZM616.792 235.046C617.429 234.409 618.067 233.931 618.545 233.453C619.501 232.656 620.457 232.018 620.935 231.699C623.645 230.584 631.455 229.468 634.802 229.946C636.395 230.265 637.511 230.743 638.149 231.859C639.105 233.293 639.264 235.843 638.627 239.19C637.352 239.509 635.758 239.987 634.164 240.625C634.005 240.147 633.367 239.828 632.889 239.828C632.73 239.828 627.63 240.465 626.354 240.784C626.036 240.784 625.557 241.103 625.079 241.422C624.442 241.74 623.804 242.219 623.007 242.697C620.776 244.131 618.385 245.884 617.588 246.522C617.11 246.841 616.473 247.478 615.516 248.275C613.763 249.869 611.054 252.419 608.982 253.535C608.504 253.853 608.026 254.013 607.707 254.172C607.547 254.172 607.388 254.332 607.069 254.172C606.751 254.172 606.432 253.853 605.954 253.535C605.157 252.578 604.997 251.144 605.316 250.506C607.547 245.406 608.663 244.131 610.576 241.9L611.213 241.262C612.17 239.828 614.56 237.278 616.792 235.046ZM418.681 188.029C420.275 188.667 422.347 188.985 424.897 189.463C430.316 190.42 437.647 191.854 445.297 196.157C457.41 203.011 478.927 222.296 489.446 233.453C481.477 236.481 476.217 237.597 476.217 237.597C474.783 237.915 466.336 238.393 459.323 238.393C457.729 235.843 454.86 234.25 451.673 234.568L404.974 239.828L405.133 238.712C407.843 224.049 414.218 189.623 418.681 188.029ZM382.82 183.248C395.252 179.901 407.205 181.176 416.449 186.913C412.146 191.695 408.162 209.386 402.902 238.393L402.583 240.306L391.745 241.581C387.283 221.18 381.864 193.607 382.82 183.248ZM380.429 183.885C379.951 195.042 385.051 221.818 389.195 241.74L381.386 242.537C375.807 239.19 357.478 233.931 336.599 228.831C342.018 223.093 348.712 220.224 357 220.065C359.71 220.065 362.1 220.383 363.854 220.862C366.244 221.34 368.157 221.658 369.432 220.543C370.388 219.746 370.707 218.63 370.707 216.558C370.707 208.27 367.998 194.564 358.913 185.638C365.129 186.595 371.345 186.276 380.429 183.885ZM342.018 179.901C362.738 183.248 368.316 205.402 368.316 216.718C368.316 218.311 367.998 218.79 367.838 218.949C367.36 219.268 365.926 218.949 364.172 218.63C362.26 218.311 359.71 217.674 356.681 217.833C347.756 218.152 340.106 221.34 334.209 227.715C342.018 214.964 343.134 203.33 338.034 189.145C336.44 184.841 335.803 181.813 335.484 180.538C336.44 180.06 338.193 179.263 342.018 179.901ZM312.214 153.443C309.026 161.412 300.261 164.6 292.291 164.6C291.176 164.6 289.901 164.6 288.785 164.441C288.148 164.281 287.669 163.803 287.829 163.166C287.829 162.528 288.466 162.05 289.104 162.209C297.073 163.166 306.795 160.297 309.983 152.646C310.302 152.009 310.939 151.69 311.577 152.009C312.214 152.168 312.533 152.806 312.214 153.443ZM313.17 182.132C313.808 182.132 314.445 182.61 314.445 183.407V191.695C314.445 192.332 313.967 192.97 313.17 192.97C312.533 192.97 311.895 192.492 311.895 191.695V183.407C312.055 182.61 312.533 182.132 313.17 182.132ZM298.667 197.273C298.348 197.592 298.029 197.751 297.71 197.751C297.392 197.751 297.232 197.751 296.914 197.432C291.495 193.289 289.741 187.551 289.263 185.16C289.104 184.523 289.582 183.885 290.22 183.726C290.857 183.566 291.495 184.044 291.654 184.682C291.973 186.276 293.407 191.695 298.348 195.52C298.985 195.998 299.145 196.795 298.667 197.273ZM288.466 197.592C288.944 197.911 289.104 198.708 288.626 199.186C288.466 199.504 287.988 199.664 287.669 199.664C287.351 199.664 287.191 199.664 286.872 199.345C281.454 195.201 279.7 189.463 279.222 187.073C279.063 186.435 279.541 185.798 280.179 185.638C280.816 185.479 281.454 185.957 281.613 186.595C282.091 188.348 283.525 193.767 288.466 197.592ZM286.235 202.692C290.06 202.692 294.363 202.214 298.985 201.258C303.608 200.301 308.548 198.867 314.127 197.114C323.53 193.926 329.746 188.985 333.89 183.248C334.368 184.841 335.006 187.232 335.962 190.101C340.903 203.967 339.628 215.283 331.499 227.874C314.605 223.89 296.754 219.905 283.047 217.036L282.888 216.877C275.875 210.98 274.281 208.111 273.803 205.88C273.644 205.083 273.166 203.967 272.369 202.692C272.369 202.533 272.209 202.373 272.209 202.214C271.891 201.417 271.413 200.62 270.934 199.664C275.397 201.576 280.497 202.692 286.235 202.692ZM319.068 173.844C318.908 173.207 319.068 172.569 319.705 172.25C320.343 171.931 320.98 172.25 321.299 172.888C322.255 175.278 324.168 181.654 321.777 188.826C321.618 189.304 321.139 189.623 320.661 189.623C320.502 189.623 320.343 189.623 320.343 189.623C319.705 189.463 319.386 188.667 319.546 188.029C321.618 181.335 319.705 175.438 319.068 173.844ZM333.412 105.948C334.049 105.629 334.687 105.788 335.324 106.426C339.946 110.57 341.221 119.814 335.484 130.492C334.209 126.508 333.093 122.683 331.659 118.858C331.818 117.901 331.977 117.104 332.137 116.467C332.296 116.467 332.456 116.626 332.456 116.626C333.093 117.264 333.571 118.698 333.412 121.248C333.412 121.886 333.89 122.523 334.527 122.523H334.687C335.324 122.523 335.803 122.045 335.803 121.408C336.121 118.539 335.484 115.989 334.209 114.714C333.89 114.395 333.412 114.076 332.934 113.917C333.731 111.526 334.846 110.41 335.803 110.251C336.44 110.092 336.918 109.454 336.759 108.817C336.599 108.179 335.962 107.701 335.324 107.86C333.731 108.179 331.659 109.773 330.384 114.395L329.268 111.207C330.065 108.976 331.659 106.585 333.412 105.948ZM251.331 56.8583C251.171 56.3801 251.331 55.5832 252.127 54.4676C253.721 51.9175 255.634 50.6424 260.096 52.3956C260.415 52.555 260.575 52.7144 260.734 53.0331C261.212 53.9894 260.893 55.902 260.415 57.0176C260.256 57.0176 260.096 57.177 259.937 57.177C258.184 57.6552 256.59 58.2927 255.156 58.7708C252.127 57.9739 251.49 57.177 251.331 56.8583ZM233.161 108.179C233.161 108.179 233.002 108.179 233.002 108.338C231.248 109.135 229.495 109.613 227.742 109.773C226.148 109.932 224.554 109.932 223.279 109.613C221.845 109.295 220.889 108.179 220.251 106.426C218.339 100.688 220.729 88.8939 228.22 79.8092C236.667 69.4494 243.999 65.3055 255.634 61.1616C257.228 60.524 258.981 60.0459 260.734 59.4084C275.556 54.6269 300.739 55.5832 309.664 64.1898C313.489 67.8556 315.402 70.8838 315.083 73.2745C314.924 74.5496 314.127 75.6652 312.533 76.6215C312.533 76.6215 312.373 76.6215 312.373 76.7809C312.214 76.9403 311.895 77.0997 311.577 77.2591C311.417 77.4185 311.098 77.4185 310.939 77.5778C310.78 77.5778 310.62 77.7372 310.461 77.7372C309.983 77.8966 309.664 78.056 309.186 78.2153C309.026 78.2153 308.867 78.3747 308.708 78.3747C308.07 78.5341 307.433 78.6935 306.795 78.8529L306.158 79.0123C297.392 78.5341 281.294 80.6061 266.631 86.6626C251.968 92.719 240.014 100.688 237.783 105.788C236.986 106.266 236.03 106.904 235.233 107.223C234.117 107.701 233.639 107.86 233.161 108.179ZM310.939 83.6343C310.939 83.6343 310.939 83.7937 310.939 83.9531C310.939 84.1125 310.78 84.2718 310.62 84.4312C310.62 84.5906 310.461 84.5906 310.302 84.75C309.823 85.0687 309.186 85.5469 308.23 86.025C308.23 86.025 308.23 86.025 308.07 86.025C307.273 86.3438 306.317 86.8219 305.201 87.1407C302.651 87.7782 299.782 88.5751 296.754 89.2127C290.538 90.6471 283.525 92.4003 274.76 95.2691C263.443 99.0943 255.474 103.079 249.737 105.948C248.94 106.426 247.983 106.745 247.187 107.223C243.043 109.295 240.014 109.135 239.218 108.498C239.058 108.338 238.739 108.179 239.058 107.223C240.333 103.398 251.171 95.5879 266.79 89.0533C281.454 82.9968 295.638 81.5624 302.97 81.5624C303.926 81.5624 304.723 81.5624 305.361 81.5624H305.52C305.839 81.5624 305.998 81.5624 306.317 81.5624C307.114 81.5624 307.592 81.7217 308.07 81.8811C308.389 81.8811 308.548 82.0405 308.708 82.0405H308.867C309.186 82.1999 309.345 82.3593 309.664 82.3593C309.823 82.5186 310.142 82.678 310.302 82.678L310.461 82.8374C310.461 82.8374 310.461 82.8374 310.461 82.9968C310.62 83.1562 310.62 83.1562 310.62 83.3155C310.939 83.4749 310.939 83.6343 310.939 83.6343ZM227.901 148.184C223.917 143.243 224.236 138.143 225.83 136.23C226.626 135.274 228.858 134.955 235.074 138.461C235.552 139.577 236.03 140.852 236.508 142.127C233.002 140.693 229.495 140.055 227.264 140.533C226.626 140.693 226.148 141.33 226.308 141.968C226.467 142.605 227.105 143.083 227.742 142.924C228.858 142.605 230.77 142.924 232.842 143.402C232.524 144.518 232.683 145.952 233.161 147.227C233.799 148.821 234.914 150.096 236.349 150.574C236.508 150.574 236.667 150.734 236.827 150.734C237.305 150.734 237.783 150.415 237.943 149.937C238.261 149.299 237.942 148.662 237.305 148.343C236.189 147.865 235.711 146.909 235.552 146.271C235.233 145.474 235.233 144.677 235.233 144.04C236.03 144.359 236.986 144.837 237.783 145.155C238.261 146.749 238.899 148.343 239.377 150.096C239.855 151.849 240.493 153.603 240.971 155.356C240.971 155.515 241.13 155.834 241.13 155.993C236.03 155.196 230.77 151.69 227.901 148.184ZM264.4 164.6C255.315 162.05 250.055 158.543 246.868 152.965C244.955 149.618 243.361 139.418 242.086 130.971C241.289 125.073 240.493 119.973 239.696 117.901L239.377 116.786C238.58 114.395 237.464 111.685 236.827 108.976C236.986 108.976 237.146 108.817 237.146 108.817C237.305 109.454 237.783 109.932 238.102 110.251C238.899 110.888 240.174 111.367 241.608 111.367C243.68 111.367 246.23 110.729 248.78 109.454C249.577 109.135 250.374 108.657 251.331 108.179C257.068 105.31 264.878 101.326 276.035 97.6598C284.641 94.791 291.654 93.1972 297.71 91.6034C300.739 90.8065 303.608 90.1689 306.317 89.5314C307.114 89.372 307.751 89.0533 308.389 88.8939C310.302 94.1535 313.649 102.282 317.474 105.788C322.893 110.729 326.718 118.379 329.427 130.652C331.34 138.94 329.109 144.837 327.993 146.749C324.486 145.793 311.895 142.605 299.623 143.402C300.261 141.33 300.42 138.461 298.985 134.955C298.348 133.202 296.914 130.811 295.32 128.102C292.451 123.001 288.785 116.626 288.466 112.004C288.307 109.932 289.263 108.02 291.176 106.426C294.523 103.557 300.739 101.963 304.883 102.919C305.52 103.079 306.158 102.601 306.317 101.963C306.476 101.326 305.998 100.688 305.361 100.529C300.579 99.413 293.567 101.166 289.582 104.513C287.032 106.585 285.757 109.295 286.076 112.004C286.394 117.264 290.22 123.958 293.248 129.217C294.842 131.927 296.117 134.158 296.754 135.752C298.029 138.94 298.029 141.968 296.595 144.199C296.595 144.199 296.595 144.199 296.435 144.359C296.276 144.677 295.957 144.996 295.638 145.315C295.479 145.474 295.479 145.474 295.32 145.634C295.16 145.793 294.842 146.112 294.682 146.271C294.523 146.43 294.363 146.431 294.363 146.59C294.045 146.909 293.566 147.068 293.088 147.227C293.088 147.227 293.088 147.227 292.929 147.227C292.451 147.387 291.973 147.546 291.495 147.706C291.335 147.706 291.335 147.706 291.176 147.706C290.857 147.706 290.538 147.865 290.22 147.865C290.06 147.865 290.06 147.865 289.901 147.865C289.423 147.865 289.104 147.865 288.626 147.865C288.466 147.865 288.466 147.865 288.307 147.865C287.988 147.865 287.669 147.706 287.351 147.706C287.191 147.706 287.191 147.706 287.032 147.546C286.713 147.387 286.394 147.227 286.076 147.068C284.482 146.112 283.844 144.199 284.004 141.968C284.004 141.33 283.525 140.693 282.888 140.693C282.25 140.693 281.613 141.171 281.613 141.808C281.454 144.199 282.091 146.271 283.366 147.706C273.006 152.965 266.153 161.89 264.4 164.6ZM269.659 182.61C269.659 181.972 270.297 181.494 270.934 181.494C271.572 181.494 272.05 182.132 272.05 182.769C271.891 185.16 273.484 192.014 279.222 196.317C279.7 196.636 279.86 197.432 279.382 197.911C279.222 198.229 278.744 198.389 278.425 198.389C278.107 198.389 277.947 198.389 277.788 198.229C271.094 193.448 269.341 185.638 269.659 182.61ZM270.934 205.083C271.094 205.561 271.253 205.88 271.413 206.198C272.05 208.749 273.644 211.458 278.425 215.761C271.094 214.167 265.197 213.052 261.85 212.255C264.559 210.661 268.703 207.792 270.934 205.083ZM216.107 231.859C232.683 222.933 251.49 212.733 258.503 214.167C274.441 217.355 360.347 235.206 378.357 243.653L354.45 253.057C354.131 253.216 353.813 253.375 353.494 253.535C348.872 252.419 314.445 244.291 282.888 240.625C255.315 237.437 223.917 234.568 212.92 233.612C213.876 233.134 214.992 232.496 216.107 231.859ZM350.944 259.113L390.152 504.241L392.223 516.035C392.223 516.354 392.383 516.514 392.383 516.832L318.111 528.308C315.721 528.627 313.33 528.148 311.417 526.714C309.505 525.28 308.23 523.208 307.911 520.817L288.785 394.906C290.538 395.384 291.973 395.862 293.248 396.021C295.001 396.34 297.551 396.34 300.261 396.5L295.798 397.137C295.16 397.296 294.682 397.775 294.842 398.412C295.001 399.05 295.479 399.368 295.957 399.368H296.117L320.183 395.862L320.343 397.137C320.343 397.456 320.502 397.775 320.821 397.934C320.98 398.093 321.299 398.093 321.618 398.093H321.777L368.157 391.24L368.954 396.34L322.415 403.194C322.096 403.194 321.777 403.353 321.618 403.672C321.458 403.99 321.299 404.309 321.458 404.628L321.777 407.019L297.87 410.366C297.232 410.525 296.754 411.003 296.914 411.641C297.073 412.278 297.551 412.597 298.029 412.597H298.189L322.096 409.25L322.415 411.8C322.574 412.438 323.052 412.756 323.53 412.756H323.69L370.229 405.903L371.026 410.684L300.42 420.726C299.782 420.885 299.304 421.363 299.464 422.001C299.623 422.638 300.101 422.957 300.579 422.957H300.739L371.345 412.916L371.823 415.944L326.08 422.797C325.443 422.957 324.965 423.435 325.124 424.073L325.602 427.42L300.898 430.926C300.261 431.085 299.782 431.563 299.942 432.201C300.101 432.838 300.579 433.157 301.057 433.157H301.217L325.921 429.651L326.08 431.245C326.08 431.563 326.24 431.882 326.558 432.042C326.718 432.201 327.037 432.36 327.355 432.36H327.515L373.417 425.507L374.054 429.651L328.63 436.345C328.312 436.345 327.993 436.504 327.833 436.823C327.674 437.142 327.515 437.461 327.674 437.779L328.152 440.648L303.448 444.155C302.811 444.314 302.332 444.792 302.492 445.43C302.651 446.067 303.129 446.386 303.608 446.386H303.767L328.471 442.88L328.79 444.951C328.79 445.589 329.427 445.908 329.905 445.908H330.065L375.488 439.214L376.126 443.676L330.543 450.37C329.905 450.53 329.427 451.008 329.587 451.645L329.746 452.921L305.042 456.427C304.404 456.586 303.926 457.064 304.086 457.702C304.245 458.339 304.723 458.658 305.201 458.658H305.361L330.065 455.152L330.543 458.818C330.543 459.136 330.702 459.455 331.021 459.615C331.18 459.774 331.499 459.933 331.818 459.933H331.977L377.72 453.239L378.357 457.224L308.548 467.265C307.911 467.424 307.433 467.902 307.592 468.54C307.751 469.177 308.23 469.496 308.708 469.496H308.867L378.676 459.455L379.154 462.802L333.412 469.496C333.093 469.496 332.774 469.656 332.615 469.974C332.456 470.293 332.296 470.612 332.456 470.931L333.093 475.234L309.345 478.581C308.708 478.74 308.23 479.218 308.389 479.856C308.548 480.493 309.027 480.812 309.505 480.812H309.664L333.412 477.465L333.571 478.103C333.571 478.74 334.209 479.059 334.687 479.059H334.846L380.748 472.206L381.545 477.465L336.44 484.159C335.803 484.319 335.324 484.797 335.484 485.434L335.643 486.869L311.417 490.375C310.78 490.534 310.302 491.013 310.461 491.65C310.62 492.288 311.098 492.606 311.577 492.606H311.736L335.962 489.1L336.44 492.447C336.44 492.766 336.599 493.085 336.918 493.244C337.078 493.403 337.396 493.563 337.556 493.563H337.715L382.979 486.869L383.776 491.491L313.011 501.691C312.373 501.851 311.895 502.329 312.055 502.966C312.214 503.604 312.692 503.922 313.17 503.922H313.33L384.095 493.722L384.733 498.185L339.309 504.879C338.99 504.879 338.671 505.038 338.512 505.357C338.353 505.676 338.193 505.994 338.353 506.313L338.99 510.617L314.605 514.123C313.967 514.282 313.489 514.76 313.649 515.398C313.808 516.035 314.286 516.354 314.764 516.354H314.924L339.309 512.848V513.326C339.468 513.964 339.946 514.282 340.425 514.282H340.584L387.123 507.429H387.283H387.442H387.601C387.601 507.429 387.761 507.429 387.761 507.27C387.761 507.27 387.92 507.269 387.92 507.11C387.92 507.11 387.92 507.11 387.92 506.951C388.08 506.791 388.08 506.632 388.239 506.473V506.313V506.154V505.994L386.008 491.969L377.242 436.664V436.504L376.126 429.173V429.013L375.17 422.638L374.692 419.132L374.054 415.307C374.054 415.307 374.054 415.307 374.054 415.147L370.866 395.543L366.404 367.97C366.404 367.97 366.404 367.97 366.404 367.811L365.288 360.479L361.941 336.891L361.622 334.819L354.61 291.149L350.625 266.445L350.466 265.01C350.466 265.01 350.466 265.01 350.466 264.851C350.466 264.691 350.466 264.691 350.306 264.532C350.306 264.532 350.306 264.373 350.147 264.373L349.987 264.213C349.987 264.213 349.987 264.213 349.828 264.213C349.669 264.213 349.509 264.054 349.35 264.054H349.191L302.492 270.907C302.173 270.907 301.854 271.067 301.695 271.385C301.536 271.704 301.376 272.023 301.536 272.342L301.854 273.935L277.628 277.442C276.991 277.601 276.513 278.079 276.672 278.717C276.831 279.354 277.31 279.673 277.788 279.673H277.947L302.173 276.167L302.651 279.354C302.811 279.992 303.289 280.311 303.767 280.311H303.926L349.509 273.617L350.147 277.601L304.564 284.295C303.926 284.455 303.448 284.933 303.608 285.73V286.048L279.063 289.555C278.425 289.714 277.947 290.192 278.107 290.83C278.266 291.467 278.744 291.786 279.222 291.786H279.382L304.086 288.28L304.723 292.902C304.723 293.221 304.883 293.539 305.201 293.699C305.361 293.858 305.679 294.017 305.839 294.017H305.998L351.741 287.323L352.219 290.352L291.495 300.233C290.857 299.277 289.901 298.48 288.944 298.161C287.032 297.524 284.801 298.161 283.525 299.915C283.047 300.552 282.569 301.19 282.091 301.827C281.454 302.624 280.816 303.421 280.019 304.377C278.903 305.652 277.469 306.768 276.035 307.884L271.413 277.442C271.094 275.051 271.731 272.66 273.006 270.748C274.441 268.835 276.513 267.56 278.903 267.241L351.262 256.563C350.784 257.519 350.784 258.316 350.944 259.113ZM312.214 347.57H311.577C305.361 347.57 297.232 347.251 296.276 346.773L291.813 344.86C296.595 342.151 301.536 339.601 304.564 338.007L314.764 336.572C318.111 336.572 321.618 336.732 323.052 336.254C323.849 336.094 324.646 335.616 325.124 335.138L358.435 330.356L359.072 334.341L312.533 341.194C312.214 341.194 311.895 341.354 311.736 341.672C311.577 341.991 311.417 342.31 311.577 342.629L312.214 347.57ZM309.026 323.662C304.245 324.141 295.16 325.256 291.495 326.053C290.219 326.372 289.263 326.531 288.466 326.85C285.757 327.488 284.322 327.966 279.382 327.488C279.222 327.488 279.063 327.488 278.903 327.488L278.425 324.619C281.772 321.909 284.96 319.2 287.51 316.331L307.911 313.462L308.07 314.737C308.07 315.375 308.708 315.693 309.186 315.693H309.345L354.928 308.999L355.725 314.1L309.664 320.953C309.027 321.112 308.548 321.59 308.708 322.387L309.026 323.662ZM292.291 302.624L352.378 292.902L353.334 299.118L307.751 305.812C307.433 305.812 307.114 305.971 306.955 306.29C306.795 306.609 306.636 306.927 306.795 307.246L307.273 310.912L289.423 313.462C291.335 310.912 292.451 308.202 292.61 305.812C292.77 304.537 292.61 303.58 292.291 302.624ZM324.168 328.444L357.319 323.503L357.957 327.966L326.24 332.428C326.399 331.153 325.921 330.038 325.124 329.241C325.124 328.922 324.646 328.763 324.168 328.444ZM320.98 349.642L360.507 343.744L361.144 347.57L322.415 353.307C322.415 352.829 322.255 352.351 322.096 351.873C321.936 350.917 321.458 350.279 320.98 349.642ZM362.738 357.292L363.375 361.595L324.965 367.333C323.371 365.739 319.068 366.377 312.373 367.492C309.186 367.97 305.998 368.608 304.404 368.448C301.536 368.289 294.204 364.942 289.901 362.711C291.654 362.711 293.407 362.87 294.842 362.87C296.595 362.87 298.189 363.03 299.145 363.03C300.579 363.03 309.983 362.711 315.242 361.436L315.402 363.03C315.561 363.667 316.039 363.986 316.517 363.986H316.677L362.738 357.292ZM364.969 371.158L365.607 374.824L301.057 384.068C299.782 383.908 298.826 383.749 298.667 383.749C297.551 383.59 294.523 382.155 291.335 380.561L292.451 380.88C294.842 381.518 299.782 382.155 303.767 382.155C305.201 382.155 306.476 382.155 307.433 381.837C309.823 381.358 315.083 379.605 318.749 378.171C318.908 378.171 318.908 378.171 319.068 378.171H319.227L364.969 371.158ZM365.926 377.214L366.722 381.996L320.502 388.849C319.864 389.009 319.386 389.487 319.546 390.284L320.024 393.949L312.852 394.906C313.649 393.471 313.808 391.24 311.895 389.009C310.78 387.574 308.867 386.618 306.795 385.821L365.926 377.214ZM133.707 313.303L134.026 313.143C152.355 300.712 169.409 278.557 180.565 264.054C182.318 261.663 184.072 259.432 185.665 257.519C196.503 243.653 202.4 238.553 210.688 236.003C219.136 236.8 253.084 239.669 282.569 243.175C308.708 246.203 336.599 252.26 348.075 254.81L278.425 265.01C275.397 265.488 272.847 267.082 270.934 269.473C269.181 271.864 268.384 274.892 268.862 277.92L273.644 309.318C272.528 309.956 271.253 310.593 269.819 311.231C266.631 312.506 264.24 313.143 262.328 313.781C258.821 314.896 256.59 315.534 253.243 318.243C251.33 319.678 243.999 325.097 232.524 329.878C230.77 321.59 231.727 317.287 231.886 316.809C232.683 315.693 236.827 309.318 235.871 294.496C234.914 280.311 228.22 263.416 219.614 253.535C219.136 253.057 218.498 253.057 217.86 253.375C217.382 253.853 217.382 254.491 217.701 255.128C226.148 264.532 232.524 280.789 233.48 294.655C234.436 308.999 230.452 314.737 229.973 315.375C228.858 316.809 228.38 322.387 230.133 330.675C224.873 332.747 218.976 334.66 212.282 335.935C205.588 337.369 200.647 338.325 196.822 339.282C188.216 341.194 183.753 342.151 173.074 343.585C170.046 344.063 158.571 343.585 153.47 342.629C144.386 334.66 134.026 322.387 132.113 318.722C130.201 315.534 130.36 315.534 133.707 313.303ZM240.652 378.49C227.583 375.302 214.992 378.649 204.313 381.837C199.213 383.43 194.91 385.502 189.65 388.212C183.912 391.081 176.9 394.587 166.221 398.731C145.342 406.7 127.651 403.034 124.782 401.44C121.913 399.847 118.407 400.165 115.697 400.484C114.741 400.643 113.785 400.643 112.988 400.643C110.916 400.643 107.25 395.703 106.931 392.993C106.453 390.284 106.612 377.214 107.409 370.042C108.206 364.145 115.06 350.279 117.769 345.019C118.088 344.223 118.407 343.744 118.566 343.266C119.682 340.876 122.072 338.166 128.288 330.516C129.723 328.763 131.316 326.85 133.07 324.619C136.735 329.4 142.633 335.935 148.53 341.672C148.211 341.672 148.052 341.513 147.733 341.513C138.807 339.441 129.723 337.21 122.71 341.991C122.232 342.31 122.072 343.107 122.391 343.585C122.71 344.063 123.507 344.223 124.144 343.904C130.201 339.76 138.489 341.672 147.255 343.744C149.008 344.223 150.761 344.541 152.514 345.019C156.339 345.816 163.83 346.295 168.771 346.295C170.684 346.295 172.437 346.294 173.234 346.135C184.072 344.541 188.375 343.585 197.141 341.672C201.125 340.876 205.907 339.76 212.601 338.485C236.349 333.544 251.649 322.387 254.518 320.156C257.546 317.765 259.459 317.287 262.806 316.171C264.719 315.534 267.109 314.896 270.456 313.621C271.731 313.143 272.847 312.665 273.803 312.028C274.6 311.549 275.238 311.231 276.035 310.753C279.063 308.84 281.294 306.609 283.047 304.377C283.844 303.421 284.482 302.624 285.119 301.668C285.119 301.668 285.119 301.508 285.279 301.508C285.916 300.711 286.873 300.393 287.829 300.711C287.988 300.711 288.148 300.871 288.307 301.03C288.944 301.508 289.582 302.146 289.741 303.262C289.901 304.058 290.06 304.855 290.06 305.971C290.06 308.521 288.307 311.39 285.916 314.259C285.119 315.215 284.322 316.171 283.366 317.128C281.613 318.881 279.7 320.634 277.628 322.228C276.832 322.865 276.194 323.344 275.556 323.981C274.122 325.097 272.847 326.053 271.413 327.009C271.094 327.009 270.775 326.85 270.297 326.85C265.356 326.213 262.328 325.894 261.053 326.053C260.415 326.213 259.937 326.691 260.096 327.328C260.256 327.966 260.734 328.444 261.372 328.284C262.487 328.125 266.312 328.603 270.137 329.081C270.616 329.081 271.094 329.241 271.572 329.241C273.166 329.4 274.76 329.559 276.353 329.719C277.15 329.719 277.947 329.878 278.744 329.878C284.163 330.356 285.757 329.878 288.626 329.241C289.423 329.081 290.379 328.763 291.495 328.603C295.798 327.647 304.723 326.531 308.867 326.212C309.345 326.212 309.664 326.212 310.142 326.212C310.62 326.212 310.939 326.212 310.939 326.212C310.939 326.212 311.098 326.212 311.258 326.372C312.055 326.531 313.489 327.009 315.083 327.647C315.88 327.966 316.517 328.284 317.314 328.444C318.111 328.763 318.749 329.081 319.386 329.4C321.299 330.197 322.733 330.994 323.052 331.313C323.371 331.631 323.53 332.269 323.371 332.906C323.371 333.066 323.371 333.066 323.211 333.225C323.052 333.703 322.574 334.182 321.777 334.341C320.502 334.66 317.155 334.66 313.967 334.5C313.649 334.5 313.33 334.5 313.011 334.5C309.505 334.341 307.433 334.341 306.476 334.66C305.998 334.819 304.883 335.297 303.289 336.094C301.536 337.05 299.145 338.166 296.914 339.441C293.088 341.513 289.263 343.585 287.988 344.382C287.669 344.541 287.351 345.019 287.351 345.498C287.351 345.976 287.669 346.295 287.988 346.613L294.523 349.642C296.117 350.438 307.273 350.598 310.939 350.598C311.258 350.598 311.736 350.598 312.055 350.598C313.967 350.598 315.402 350.598 316.517 350.757C318.111 351.076 318.908 351.713 319.386 352.989C319.546 353.467 319.546 353.785 319.546 354.104C319.546 354.582 319.546 354.901 319.546 355.379C319.546 355.857 319.227 356.336 319.068 356.654C318.589 357.451 317.792 358.089 316.836 358.726C316.836 358.726 316.677 358.726 316.677 358.886C316.517 359.045 316.039 359.204 315.721 359.204C315.402 359.364 314.924 359.364 314.605 359.523C310.302 360.479 301.854 360.958 298.826 360.958C297.87 360.958 296.276 360.958 294.523 360.798C284.801 360.479 284.801 360.639 284.322 361.436C284.163 361.754 284.004 362.392 284.322 362.711C285.119 363.986 299.623 370.839 303.926 371.158C305.839 371.317 309.027 370.68 312.533 370.202C313.489 370.042 314.924 369.724 316.199 369.564C318.749 369.245 321.458 368.927 322.574 369.086C322.733 369.086 322.893 369.245 322.893 369.245C323.052 369.564 323.211 369.883 323.371 370.202C323.69 370.999 323.53 371.636 323.53 372.114C323.211 373.23 322.255 374.186 321.299 374.664C320.821 374.824 320.183 375.143 319.386 375.461C319.067 375.621 318.589 375.78 318.271 375.939C317.952 376.099 317.474 376.258 317.155 376.418C313.489 377.693 308.708 379.446 306.317 379.924C303.129 380.561 295.798 379.765 292.451 378.968L291.016 378.649C289.423 378.33 287.669 377.852 285.916 377.533C285.119 377.374 284.163 377.214 283.366 377.055C282.25 376.896 281.135 376.736 280.179 376.736C279.541 376.736 278.903 377.214 278.903 377.852C278.903 378.49 279.382 379.127 280.019 379.127C280.816 379.127 281.772 379.286 282.729 379.446C282.729 379.605 282.888 379.765 283.047 379.765C283.207 379.765 283.366 379.924 283.685 380.083C284.322 380.402 285.119 380.88 286.394 381.518C289.104 382.952 292.77 385.024 295.479 385.98C296.435 386.299 297.232 386.618 297.87 386.618C298.667 386.777 299.623 386.937 300.579 387.096C304.086 387.734 308.07 389.168 309.664 390.921C311.098 392.674 310.461 393.949 310.302 394.428C309.823 395.065 309.186 395.384 308.867 395.225C307.751 394.906 305.042 394.906 301.854 394.746C298.985 394.587 295.638 394.587 293.567 394.268C292.132 394.109 290.379 393.631 288.307 392.993C287.51 392.674 286.713 392.515 285.757 392.196C284.482 391.718 282.888 391.24 281.454 390.603C279.382 389.806 277.15 389.009 274.6 388.212C266.153 384.546 252.606 381.358 240.652 378.49ZM276.194 327.009C275.875 327.009 275.397 326.85 274.919 326.85C275.238 326.531 275.556 326.372 276.035 326.053L276.194 327.009ZM250.374 406.541C250.374 404.947 250.215 392.037 245.433 381.996C255.793 384.546 266.631 387.255 273.963 389.806C276.353 390.603 278.585 391.399 280.657 392.196C282.729 392.993 284.482 393.631 286.235 394.109L294.523 448.617C293.567 447.82 292.451 446.705 291.176 445.589C280.338 435.867 251.49 409.888 250.374 406.541ZM253.562 417.697C252.924 416.582 251.968 414.828 252.924 413.235C258.821 419.45 270.297 429.97 289.582 447.502C291.973 449.733 293.885 451.327 295.001 452.442C295.001 452.442 295.001 452.442 295.16 452.442L297.392 466.787C285.119 455.949 254.518 419.45 253.562 417.697ZM337.396 542.333C335.962 542.652 334.846 542.811 333.731 542.971C307.433 547.434 285.279 546.477 267.747 539.943C246.708 532.133 236.189 520.179 234.117 517.629C236.349 511.413 239.696 505.357 243.202 498.822C248.621 488.941 254.199 478.74 256.112 467.584C258.662 452.283 258.184 442.401 256.59 425.507C266.95 437.939 289.423 463.918 297.71 470.293L305.361 521.295C305.839 524.323 307.433 526.873 309.823 528.786C311.736 530.22 314.127 531.017 316.517 531.017C317.155 531.017 317.633 531.017 318.271 530.858L393.499 519.223C394.455 520.179 395.889 520.817 397.483 520.817L425.534 520.339H425.694L450.079 515.398C448.326 530.699 449.441 538.03 450.557 541.377C402.424 530.699 355.247 539.146 337.396 542.333ZM490.243 504.719L425.694 517.948L397.802 518.426C396.846 518.426 395.889 517.948 395.411 517.311C395.411 517.311 395.411 517.151 395.252 517.151C394.933 516.832 394.774 516.354 394.774 515.876L392.702 504.082L353.175 258.794C353.016 257.679 353.494 256.563 354.291 255.766C354.45 255.607 354.769 255.447 355.088 255.288L381.226 245.087L403.221 242.697H403.54L451.673 237.278C454.063 236.959 456.135 238.234 457.092 240.306C457.092 240.306 457.092 240.306 457.092 240.465C457.251 240.944 457.41 241.422 457.41 241.9L494.227 498.822C494.865 501.532 493.112 504.082 490.243 504.719ZM501.24 501.851C498.849 502.966 498.053 502.966 496.778 501.372C496.937 500.416 497.096 499.46 496.937 498.504L460.12 241.581C460.12 241.422 460.12 241.262 459.96 241.103C460.598 241.103 461.236 241.103 461.873 241.103L501.24 501.851ZM507.615 500.257C506.5 499.938 504.906 499.779 502.993 500.894C502.834 501.054 502.515 501.213 502.356 501.213L463.308 240.784C464.104 240.784 465.061 240.784 465.858 240.625L507.615 500.257ZM512.875 500.097C512.397 500.894 512.078 501.372 511.281 501.532C510.644 501.691 510.166 501.532 509.209 501.054C509.05 501.054 509.05 500.894 508.891 500.894L466.973 240.784C467.77 240.784 468.726 240.784 469.523 240.625L516.222 498.025C514.309 497.866 513.513 499.141 512.875 500.097ZM523.394 497.229C523.075 498.344 522.757 499.141 522.279 499.46C521.641 499.779 520.366 499.3 519.091 498.982C518.613 498.822 517.975 498.663 517.338 498.504L470.48 240.784C471.595 240.784 472.552 240.625 473.348 240.625L523.554 496.272C523.554 496.432 523.554 496.75 523.394 497.229ZM529.291 489.578C528.335 489.259 527.538 489.1 526.741 489.578C525.626 490.216 524.988 491.331 524.35 493.403L474.624 240.306C475.42 240.306 476.217 240.147 476.536 240.147C476.536 240.147 476.536 240.147 476.696 240.147L530.885 491.172C530.566 490.375 529.929 489.897 529.291 489.578ZM536.463 485.912C534.551 485.594 533.595 488.303 532.479 492.606L477.811 239.668C478.13 239.668 478.449 239.509 478.927 239.35L539.97 489.897C538.695 487.506 537.738 486.072 536.463 485.912ZM550.489 486.55C548.258 483.044 546.345 479.856 544.114 480.334C541.882 480.812 541.404 484.478 541.245 489.897L480.043 239.031C480.68 238.872 481.158 238.712 481.955 238.553L552.242 489.259C551.605 488.463 550.967 487.347 550.489 486.55ZM564.036 487.028C563.08 485.912 561.646 484.159 560.689 482.884C557.661 479.059 556.545 477.625 555.27 477.625C553.198 477.625 553.198 480.334 553.198 484.478C553.198 485.434 553.198 486.55 553.039 487.666L483.071 238.234C483.708 238.075 484.346 237.756 484.983 237.597L564.036 487.028ZM575.352 479.218C572.165 475.871 570.252 473.799 568.658 473.64C566.108 473.481 565.63 477.625 565.152 483.044C565.152 483.84 564.993 484.637 564.993 485.275L486.258 237.118C487.055 236.8 487.693 236.64 488.49 236.321L578.062 481.769C577.106 480.972 575.99 480.015 575.352 479.218ZM592.088 475.871C589.378 472.684 585.712 468.54 582.206 470.134C578.859 471.728 578.699 476.509 578.54 480.175L489.446 236.003C490.243 235.684 491.199 235.365 492.156 234.887L593.044 476.668C593.044 476.828 593.044 476.987 593.044 477.146C592.725 476.668 592.406 476.35 592.088 475.871ZM607.229 470.612C606.432 470.134 605.475 469.337 604.679 468.699C601.013 465.83 597.347 462.802 594.956 464.396C592.884 465.671 592.884 469.496 593.044 473.321L493.431 234.728C494.706 234.25 495.821 233.771 497.096 233.134L607.229 470.612ZM619.182 459.933C617.27 458.34 614.56 455.949 610.735 458.658C608.822 459.933 608.663 463.758 608.344 467.265C608.344 468.062 608.185 469.177 608.185 469.974L498.053 232.337C498.212 232.178 498.371 232.178 498.531 232.018C499.646 231.54 500.762 230.903 501.878 230.424L621.573 461.527C620.776 461.368 619.979 460.73 619.182 459.933ZM637.511 453.239C636.236 452.283 634.164 450.53 632.73 449.255C630.817 447.502 629.223 447.023 627.629 447.82C624.761 449.095 624.123 454.036 624.282 456.746C624.282 459.774 624.123 461.527 623.326 462.165C623.326 462.165 623.167 462.165 623.007 462.324L502.993 230.106C504.109 229.468 505.065 228.99 506.022 228.512L637.511 453.239ZM651.059 443.039C647.871 441.764 644.683 440.648 642.452 440.808C637.83 441.445 638.149 447.342 638.308 451.167C638.308 451.486 638.308 451.805 638.308 452.124L507.137 227.874C508.572 227.077 509.687 226.121 510.803 225.324L656.477 444.633C655.521 444.633 652.812 443.676 651.059 443.039ZM670.662 431.723C669.706 431.404 668.272 430.767 666.837 430.288L665.881 429.81C660.94 427.738 658.39 428.535 657.115 429.651C655.681 430.767 655.202 432.679 655.521 435.07C655.681 435.707 655.84 436.345 655.84 437.142C656.318 439.373 656.637 441.286 656.637 443.039L511.6 224.687C512.716 223.571 513.831 222.455 515.106 221.18L670.662 431.723ZM670.981 426.782C671.141 427.738 671.459 428.854 671.619 429.97C671.778 430.607 671.778 431.085 671.778 431.404L515.903 220.065C516.7 218.949 517.656 217.833 518.613 216.558L684.21 418.494C680.066 417.06 674.488 415.785 672.416 417.379C669.547 419.291 670.184 422.957 670.981 426.782ZM673.212 425.826C672.575 422.479 672.256 420.407 673.691 419.291C675.125 418.335 681.66 419.929 687.079 422.16L688.194 423.435C684.529 423.754 677.356 424.71 673.212 425.826ZM729.633 384.387L690.585 422.479L519.888 214.327L564.674 182.451C567.862 180.219 572.324 180.697 574.874 183.885L615.198 233.453C613.285 235.206 611.213 237.437 609.141 239.828L608.504 240.465C606.432 242.856 605.157 244.291 602.766 249.709C602.128 251.303 602.447 253.535 603.882 255.128C604.36 255.607 604.838 256.085 605.475 256.404C605.475 256.563 605.475 256.722 605.475 257.041C605.475 258.635 606.591 259.91 608.185 260.229C607.866 260.388 607.547 260.707 607.388 260.866C604.36 263.257 600.535 266.445 601.172 270.588C601.332 271.545 601.81 272.82 603.563 273.617C604.679 274.095 606.272 274.414 607.866 274.414C609.46 274.414 611.373 274.095 613.126 273.617C612.329 275.37 612.169 277.282 612.966 278.717C613.604 279.833 615.198 281.426 619.342 280.629C627.311 279.036 639.583 269.951 641.017 268.995C641.814 268.516 642.452 268.038 643.089 267.56L645.48 270.429C643.249 271.545 640.539 272.342 638.149 273.139C636.236 273.776 634.802 274.095 634.005 274.573C631.933 275.848 630.817 278.079 630.658 279.673C630.498 280.629 630.817 281.426 631.295 281.905C630.02 282.383 628.905 283.498 628.905 285.092C628.905 286.845 630.339 288.28 632.092 288.28C633.845 288.28 635.28 286.845 635.28 285.092C635.28 284.614 635.12 284.136 634.961 283.658C635.758 283.817 636.555 283.817 637.511 283.817C638.786 283.817 640.38 283.658 641.974 283.498H642.133C642.133 283.658 642.133 283.817 642.133 283.976C642.133 285.73 643.568 287.164 645.321 287.164C647.074 287.164 648.508 285.73 648.508 283.976C648.508 283.339 648.349 282.701 648.03 282.223C649.943 281.745 651.855 281.108 653.609 280.47L730.43 374.664C732.662 377.374 732.502 381.677 729.633 384.387Z" fill="black"/>
<path d="M600.056 232.018C601.809 232.018 603.244 230.584 603.244 228.831C603.244 227.078 601.809 225.643 600.056 225.643C598.303 225.643 596.869 227.078 596.869 228.831C596.709 230.584 598.144 232.018 600.056 232.018Z" fill="black"/>
<path d="M598.463 239.19C596.71 239.19 595.275 240.625 595.275 242.378C595.275 244.131 596.71 245.566 598.463 245.566C600.216 245.566 601.651 244.131 601.651 242.378C601.81 240.625 600.216 239.19 598.463 239.19Z" fill="black"/>
<path d="M596.391 253.535C594.638 253.535 593.203 254.969 593.203 256.722C593.203 258.475 594.638 259.91 596.391 259.91C598.144 259.91 599.578 258.475 599.578 256.722C599.578 254.969 598.144 253.535 596.391 253.535Z" fill="black"/>
<path d="M619.023 281.745C617.269 281.745 615.835 283.18 615.835 284.933C615.835 286.686 617.269 288.12 619.023 288.12C620.776 288.12 622.21 286.686 622.21 284.933C622.21 283.18 620.776 281.745 619.023 281.745Z" fill="black"/>
<path d="M655.043 309.159C653.29 309.159 651.855 310.593 651.855 312.346C651.855 314.1 653.29 315.534 655.043 315.534C656.796 315.534 658.231 314.1 658.231 312.346C658.39 310.593 656.956 309.159 655.043 309.159Z" fill="black"/>
<path d="M652.652 322.706C650.899 322.706 649.465 324.14 649.465 325.894C649.465 327.647 650.899 329.081 652.652 329.081C654.406 329.081 655.84 327.647 655.84 325.894C655.84 324.14 654.406 322.706 652.652 322.706Z" fill="black"/>
<path d="M678.791 323.025C677.038 323.025 675.604 324.459 675.604 326.212C675.604 327.965 677.038 329.4 678.791 329.4C680.544 329.4 681.979 327.965 681.979 326.212C682.138 324.618 680.544 323.025 678.791 323.025Z" fill="black"/>
<path d="M667.794 308.68C666.041 308.68 664.606 310.115 664.606 311.868C664.606 313.621 666.041 315.056 667.794 315.056C669.547 315.056 670.982 313.621 670.982 311.868C671.141 310.115 669.707 308.68 667.794 308.68Z" fill="black"/>
<path d="M665.403 324.3C663.65 324.3 662.216 325.734 662.216 327.487C662.216 329.241 663.65 330.675 665.403 330.675C667.157 330.675 668.591 329.241 668.591 327.487C668.591 325.734 667.157 324.3 665.403 324.3Z" fill="black"/>
<path d="M641.815 308.68C640.061 308.68 638.627 310.115 638.627 311.868C638.627 313.621 640.061 315.056 641.815 315.056C643.568 315.056 645.002 313.621 645.002 311.868C645.002 310.115 643.568 308.68 641.815 308.68Z" fill="black"/>
<path d="M656.158 294.018C654.405 294.018 652.971 295.452 652.971 297.205C652.971 298.958 654.405 300.393 656.158 300.393C657.912 300.393 659.346 298.958 659.346 297.205C659.346 295.452 657.912 294.018 656.158 294.018Z" fill="black"/>
<path d="M644.205 295.133C642.452 295.133 641.018 296.567 641.018 298.321C641.018 300.074 642.452 301.508 644.205 301.508C645.958 301.508 647.393 300.074 647.393 298.321C647.393 296.727 645.958 295.133 644.205 295.133Z" fill="black"/>
<path d="M630.18 295.133C628.427 295.133 626.992 296.567 626.992 298.321C626.992 300.074 628.427 301.508 630.18 301.508C631.933 301.508 633.367 300.074 633.367 298.321C633.527 296.727 632.092 295.133 630.18 295.133Z" fill="black"/>
<path d="M629.861 211.139C647.552 212.414 659.506 220.702 661.737 233.293C661.897 233.931 662.375 234.25 662.853 234.25H663.012C663.65 234.09 664.128 233.453 663.969 232.815C661.418 219.268 648.349 210.024 629.861 208.749C629.223 208.749 628.586 209.227 628.586 209.864C628.586 210.502 629.064 211.139 629.861 211.139Z" fill="black"/>
<path d="M649.943 205.72C656.478 204.604 659.984 207.951 661.1 211.298C661.259 211.777 661.737 212.095 662.215 212.095C662.375 212.095 662.534 212.095 662.534 212.095C663.171 211.936 663.49 211.139 663.331 210.502C661.418 205.083 655.999 202.373 649.465 203.329C648.827 203.489 648.349 204.126 648.508 204.764C648.668 205.401 649.146 205.88 649.943 205.72Z" fill="black"/>
<path d="M109.162 429.332C85.4147 422.16 74.0986 408.294 75.5331 388.052C75.5331 387.415 75.0549 386.777 74.4174 386.777C73.7799 386.777 73.1423 387.256 73.1423 387.893C71.5485 409.409 83.3427 424.232 108.366 431.723C108.525 431.723 108.525 431.723 108.684 431.723C109.162 431.723 109.641 431.404 109.8 430.926C110.278 430.129 109.8 429.492 109.162 429.332Z" fill="black"/>
<path d="M551.764 131.13C552.243 131.449 552.88 131.608 553.358 131.608C554.633 131.608 556.068 130.971 557.502 129.855C558.937 128.739 560.212 127.145 561.327 125.552C563.559 122.205 564.834 118.379 564.037 115.989C564.037 115.829 564.037 115.67 563.878 115.511C563.559 114.714 562.602 110.57 561.487 105.47L577.106 94.4722L579.975 106.266C577.425 106.426 574.397 109.135 572.165 112.482C569.456 116.626 568.021 121.726 570.572 123.48C571.05 123.798 571.687 123.958 572.165 123.958C573.44 123.958 574.875 123.32 576.309 122.205C577.744 121.089 579.019 119.495 580.134 117.901C582.047 114.873 583.322 111.526 583.003 109.135L577.265 85.5469C577.106 85.2281 576.947 84.9093 576.469 84.75C576.15 84.5906 575.672 84.5906 575.353 84.9093L557.821 97.1817C557.502 97.5005 557.183 97.9786 557.343 98.4567C559.096 107.223 560.212 111.685 560.69 114.235C558.299 114.395 555.271 117.104 553.04 120.451C550.49 124.276 549.055 129.377 551.764 131.13ZM559.893 98.4567L575.353 87.6188L576.469 92.0815L560.849 102.919C560.53 101.485 560.212 99.8912 559.893 98.4567Z" fill="black"/>
<path d="M109.003 275.37C111.394 275.37 114.741 273.457 117.291 270.748C119.363 268.676 120.957 266.285 121.594 264.213C121.594 264.054 121.594 263.895 121.754 263.735C123.188 257.679 122.551 242.697 122.073 234.568C124.145 236.162 126.854 236.481 129.085 236.64C133.389 236.959 136.417 237.278 135.939 244.609C135.939 245.247 136.417 245.884 137.054 245.884C137.692 245.884 138.33 245.406 138.33 244.769C138.808 235.047 133.548 234.728 129.245 234.409C125.738 234.09 122.87 233.931 121.594 229.787C121.435 229.149 120.798 228.831 120.16 228.99C119.523 229.149 119.204 229.628 119.204 230.265C119.841 238.394 120.479 252.26 119.682 259.91C117.132 258.954 113.307 261.185 110.278 264.213C106.772 267.72 104.381 272.501 106.613 274.732C107.41 275.051 108.206 275.37 109.003 275.37Z" fill="black"/>
<path d="M195.866 441.923C192.519 441.923 189.331 441.923 187.259 439.533C186.94 439.214 186.303 439.054 185.825 439.373C185.347 439.692 185.187 440.17 185.347 440.808C186.144 443.517 187.1 446.545 188.056 449.733C188.056 449.733 188.056 449.733 188.056 449.892C189.65 455.311 191.244 460.73 192.2 463.918C189.65 464.077 186.622 466.787 184.39 469.974C182.956 472.046 182 474.278 181.521 476.19C180.884 479.219 182 480.494 182.637 480.972C183.115 481.29 183.753 481.45 184.231 481.45C186.781 481.45 189.969 478.74 192.2 475.393C194.272 472.525 195.547 469.178 195.228 466.787C195.228 466.149 193.794 460.89 190.925 451.167C192.041 451.327 193.316 451.327 194.431 451.327C199.053 451.327 202.719 451.486 204.154 456.905C204.313 457.383 204.791 457.861 205.269 457.861C205.429 457.861 205.429 457.861 205.588 457.861C206.226 457.702 206.544 457.065 206.385 456.427C204.472 449.255 199.213 449.095 194.431 449.095C192.997 449.095 191.403 449.096 190.128 448.777C189.65 447.183 189.172 445.43 188.534 443.677C190.925 444.633 193.475 444.633 195.866 444.633C200.488 444.633 204.154 444.792 205.588 450.211C205.747 450.849 206.385 451.167 207.022 451.008C207.66 450.849 207.979 450.211 207.819 449.574C206.066 442.083 200.647 441.923 195.866 441.923Z" fill="black"/>
<path d="M270.934 113.12C271.572 113.438 272.209 113.12 272.528 112.482C272.847 111.845 272.528 111.207 271.891 110.888C265.994 108.338 256.112 110.41 249.737 119.176C249.418 119.654 249.418 120.451 250.055 120.77C250.215 120.929 250.534 120.929 250.693 120.929C251.012 120.929 251.49 120.77 251.649 120.451C257.068 113.279 265.675 111.048 270.934 113.12Z" fill="black"/>
<path d="M295.798 121.726C295.161 121.408 294.523 121.567 294.204 122.204C293.886 122.842 294.045 123.48 294.682 123.798C296.117 124.595 297.711 124.914 299.464 124.914C303.289 124.914 307.274 122.842 310.78 119.017C311.258 118.539 311.258 117.742 310.78 117.264C310.302 116.785 309.505 116.785 309.027 117.264C304.723 122.204 299.623 123.798 295.798 121.726Z" fill="black"/>
<path d="M276.195 127.623C276.513 126.986 276.195 126.348 275.557 126.03C274.919 125.711 274.282 126.03 273.963 126.667C272.369 129.855 269.182 131.13 267.269 131.608C264.082 132.405 260.735 131.927 258.981 130.492C258.503 130.014 257.706 130.174 257.228 130.652C256.75 131.13 256.909 131.927 257.388 132.405C258.981 133.68 261.372 134.317 264.082 134.317C265.357 134.317 266.472 134.158 267.747 133.839C271.732 132.883 274.601 130.652 276.195 127.623Z" fill="black"/>
</svg>
