<svg width="35" height="35" viewBox="0 0 35 35" fill="none" xmlns="http://www.w3.org/2000/svg">
<g clip-path="url(#clip0_237_860)">
<path d="M32.0837 5.83317C32.0837 4.229 30.7712 2.9165 29.167 2.9165H5.83366C4.22949 2.9165 2.91699 4.229 2.91699 5.83317V23.3332C2.91699 24.9373 4.22949 26.2498 5.83366 26.2498H26.2503L32.0837 32.0832V5.83317ZM23.3337 16.0415H18.9587V20.4165C18.9587 21.2186 18.3024 21.8748 17.5003 21.8748C16.6982 21.8748 16.042 21.2186 16.042 20.4165V16.0415H11.667C10.8649 16.0415 10.2087 15.3853 10.2087 14.5832C10.2087 13.7811 10.8649 13.1248 11.667 13.1248H16.042V8.74984C16.042 7.94775 16.6982 7.2915 17.5003 7.2915C18.3024 7.2915 18.9587 7.94775 18.9587 8.74984V13.1248H23.3337C24.1357 13.1248 24.792 13.7811 24.792 14.5832C24.792 15.3853 24.1357 16.0415 23.3337 16.0415Z" fill="#638298"/>
</g>
<defs>
<clipPath id="clip0_237_860">
<rect width="35" height="35" fill="white"/>
</clipPath>
</defs>
</svg>
