<svg width="95" height="95" viewBox="0 0 95 95" fill="none" xmlns="http://www.w3.org/2000/svg">
<ellipse cx="47.1809" cy="47.5" rx="47.1809" ry="47.5" fill="#F0F0E8"/>
<g clip-path="url(#clip0_30_1662)">
<path d="M46.6894 47.5C51.3055 47.5 55.0443 43.6962 55.0443 39C55.0443 34.3038 51.3055 30.5 46.6894 30.5C42.0733 30.5 38.3344 34.3038 38.3344 39C38.3344 43.6962 42.0733 47.5 46.6894 47.5ZM46.6894 51.75C41.1125 51.75 29.9795 54.5975 29.9795 60.25V62.375C29.9795 63.5438 30.9194 64.5 32.0682 64.5H61.3105C62.4594 64.5 63.3993 63.5438 63.3993 62.375V60.25C63.3993 54.5975 52.2663 51.75 46.6894 51.75Z" fill="#EFD7C9"/>
</g>
<defs>
<clipPath id="clip0_30_1662">
<rect width="50.1297" height="51" fill="white" transform="translate(21.6245 22)"/>
</clipPath>
</defs>
</svg>
