<svg width="40" height="40" viewBox="0 0 40 40" fill="none" xmlns="http://www.w3.org/2000/svg">
<g clip-path="url(#clip0_53_362)">
<path d="M25.8334 23.3334H24.5167L24.0501 22.8834C26.0501 20.5501 27.0834 17.3667 26.5167 13.9834C25.7334 9.35007 21.8667 5.65007 17.2001 5.0834C10.1501 4.21673 4.21673 10.1501 5.0834 17.2001C5.65007 21.8667 9.35007 25.7334 13.9834 26.5167C17.3667 27.0834 20.5501 26.0501 22.8834 24.0501L23.3334 24.5167V25.8334L30.4167 32.9167C31.1001 33.6001 32.2167 33.6001 32.9001 32.9167C33.5834 32.2334 33.5834 31.1167 32.9001 30.4334L25.8334 23.3334ZM15.8334 23.3334C11.6834 23.3334 8.3334 19.9834 8.3334 15.8334C8.3334 11.6834 11.6834 8.3334 15.8334 8.3334C19.9834 8.3334 23.3334 11.6834 23.3334 15.8334C23.3334 19.9834 19.9834 23.3334 15.8334 23.3334Z" fill="white"/>
</g>
<defs>
<clipPath id="clip0_53_362">
<rect width="40" height="40" fill="white"/>
</clipPath>
</defs>
</svg>
