<svg width="36" height="36" viewBox="0 0 36 36" fill="none" xmlns="http://www.w3.org/2000/svg">
<g clip-path="url(#clip0_243_1237)">
<path d="M29.4745 13.56L22.2145 12.93L19.3795 6.255C18.8695 5.04 17.1295 5.04 16.6195 6.255L13.7845 12.945L6.5395 13.56C5.2195 13.665 4.6795 15.315 5.6845 16.185L11.1895 20.955L9.5395 28.035C9.2395 29.325 10.6345 30.345 11.7745 29.655L17.9995 25.905L24.2245 29.67C25.3645 30.36 26.7595 29.34 26.4595 28.05L24.8095 20.955L30.3145 16.185C31.3195 15.315 30.7945 13.665 29.4745 13.56V13.56ZM17.9995 23.1L12.3595 26.505L13.8595 20.085L8.8795 15.765L15.4495 15.195L17.9995 9.15L20.5645 15.21L27.1345 15.78L22.1545 20.1L23.6545 26.52L17.9995 23.1Z" fill="#CEAE9B"/>
</g>
<defs>
<clipPath id="clip0_243_1237">
<rect width="36" height="36" fill="white"/>
</clipPath>
</defs>
</svg>
